# xmcd
#
# Track frame offsets: 
#        150
#        18319
#        31503
#        43983
#        58779
#        77255
#        91285
#        107233
#        121475
#        133250
#        146264
#        172595
#        189646
#        201763
#        228693
#        244086
#        256542
#        266381
#        279972
#        299618
#
# Disc length: 4029 seconds
#
# Revision: 2
# Processed by: cddbd v1.5.2PL0 Copyright (c) Steve Scherf et al.
# Submitted via: ExactAudioCopy v1.0b3
#
DISCID=110fbb14
DTITLE=Sonny Landreth - Mississippi Blues
DYEAR=2010
DGENRE=Blues
TTITLE0=I Know You Rider
TTITLE1=Prodigal Son
TTITLE2=Country Blues
TTITLE3=Don't Cry For Me
TTITLE4=M'Sippi Blues
TTITLE5=Lady Come Lately
TTITLE6=She Left Me A Mule
TTITLE7=Forever Lillie Mae
TTITLE8=That's The Way It's Gonna Be
TTITLE9=Good Enough For Me
TTITLE10=Sunrise
TTITLE11=Rise Shining
TTITLE12=Baby Ain't That Love
TTITLE13=Ain't Gonna Worry
TTITLE14=Lazy Boy
TTITLE15=The Only One
TTITLE16=Think It Over (Lazy Boy)
TTITLE17=You're Why I'm So Lonely
TTITLE18=Lookin' For A Good Time
TTITLE19=Lazy Boy (Reprise)
EXTD=
EXTT0=
EXTT1=
EXTT2=
EXTT3=
EXTT4=
EXTT5=
EXTT6=
EXTT7=
EXTT8=
EXTT9=
EXTT10=
EXTT11=
EXTT12=
EXTT13=
EXTT14=
EXTT15=
EXTT16=
EXTT17=
EXTT18=
EXTT19=
PLAYORDER=
